<svg
      width="176"
      height="149"
      viewBox="0 0 176 149"
      fill="none"
      style="stroke: black"
      xmlns="http://www.w3.org/2000/svg"
    >
      <path
        d="M39.8981 92.8144C38.4756 98.3117 37.1143 103.795 35.8776 109.36C35.7806 109.797 35.2891 111.219 34.9594 112.171C34.8902 112.479 34.7953 112.777 34.6614 113.062C34.6209 113.148 34.7608 112.745 34.9594 112.171C35.1961 111.12 35.1323 109.963 35.2959 108.911C35.7603 105.926 36.443 103.08 37.173 100.16C37.8088 97.6171 38.7463 95.1667 39.8981 92.8144C41.4999 89.5431 43.5163 86.4615 45.7122 83.5841C49.2469 78.9525 52.1165 73.8025 55.7584 69.2816C63.0645 60.212 68.632 49.7573 78.7059 43.2144C82.2041 40.9424 86.8575 38.0802 91.1843 37.8741C94.0675 37.7368 93.4706 46.7146 93.2993 48.1582C92.2641 56.8831 89.8693 65.4756 87.1658 73.8024C85.6622 78.4335 84.7136 83.219 83.5704 87.9463C82.7032 91.5323 81.5963 95.0508 80.4984 98.5724C79.7864 100.856 79.0781 103.142 78.4415 105.448C77.478 108.938 76.3122 112.664 75.9829 116.287C75.8447 117.807 75.9405 116.559 75.9564 115.811C76.0765 110.168 78.0035 104.159 80.4984 98.5724C81.5963 95.0508 82.7032 91.5323 83.5704 87.9463C84.7136 83.219 85.6622 78.4335 87.1658 73.8024C89.8693 65.4756 92.2641 56.8831 93.2993 48.1582C93.4706 46.7146 94.0675 37.7368 91.1843 37.8741C86.8575 38.0802 82.2041 40.9424 78.7059 43.2144C68.632 49.7573 63.0645 60.212 55.7584 69.2816C52.1165 73.8025 49.2469 78.9525 45.7122 83.5841C43.5163 86.4615 41.4999 89.5431 39.8981 92.8144Z"
        fill="#C4C4C4"
        class="svg-elem-1"
      ></path>
      <path
        d="M49.3077 37.8741C49.3077 46.4988 46.2079 54.021 44.549 62.4079C42.5998 72.2619 42.5206 82.6987 40.0018 92.4142C38.5418 98.0456 37.1443 103.66 35.8776 109.36C35.7221 110.06 34.5536 113.291 34.6614 113.062C35.2529 111.805 35.0844 110.271 35.2959 108.911C35.7603 105.926 36.443 103.08 37.173 100.16C38.693 94.0803 41.9373 88.5306 45.7122 83.5841C49.2469 78.9525 52.1165 73.8025 55.7584 69.2816C63.0645 60.212 68.632 49.7573 78.7059 43.2144C82.2041 40.9424 86.8575 38.0802 91.1843 37.8741C94.0675 37.7368 93.4706 46.7146 93.2993 48.1582C92.2641 56.8831 89.8693 65.4756 87.1658 73.8024C85.6622 78.4335 84.7136 83.219 83.5704 87.9463C82.1407 93.8581 80.0597 99.5865 78.4415 105.448C77.478 108.938 76.3122 112.664 75.9829 116.287C75.8447 117.807 75.9405 116.559 75.9564 115.811C76.1506 106.686 81.0691 96.6063 85.4739 88.898C90.7909 79.5932 97.399 70.2049 104.985 62.6194C108.197 59.4069 111.39 56.3422 114.978 53.5514C118.432 50.8645 122.147 48.4796 125.553 45.7789C126.674 44.8896 128.881 43.3651 129.492 45.6731C132.313 56.3308 128.003 68.359 125.183 78.5346C123.033 86.2894 121.578 95.5268 125.553 102.963C129.537 110.417 136.824 115.465 145.328 115.89C152.655 116.257 160.279 108.696 164.389 103.465C168.953 97.6564 170.268 90.7446 171.025 83.5577C171.845 75.7643 172.288 67.8385 172.029 60.0021C171.472 43.1538 163.432 25.0142 148.818 15.9841C138.629 9.68898 127.581 6.40906 115.718 5.1448C102.763 3.76408 88.7144 2.93095 76.1151 6.88966C65.2187 10.3133 55.5424 16.017 46.5053 22.9106C37.9279 29.4537 29.7956 36.4007 23.3463 45.1179C10.4909 62.4939 -2.52262 89.31 7.64257 110.788C12.3239 120.679 22.8178 127.784 32.1235 132.837C45.6347 140.172 60.4333 144.641 75.8507 144.76C94.6428 144.905 113.665 141.35 131.951 137.331C140.377 135.479 149.131 133.878 157.33 131.145"
        stroke-width="7"
        stroke-linecap="round"
        class="svg-elem-2"
      ></path>
    </svg>